<svg xmlns="http://www.w3.org/2000/svg" width="158" height="158" viewBox="0 0 158 158">
  <defs>
    <style>
      .cls-1 {
        fill: #9dca00;
        fill-rule: evenodd;
      }
    </style>
  </defs>
  <path id="Ellipse_12_copy_11" data-name="Ellipse 12 copy 11" class="cls-1" d="M3.5,2A1.5,1.5,0,1,1,2,3.5,1.5,1.5,0,0,1,3.5,2Zm17,0A1.5,1.5,0,1,1,19,3.5,1.5,1.5,0,0,1,20.5,2ZM3.5,19A1.5,1.5,0,1,1,2,20.5,1.5,1.5,0,0,1,3.5,19Zm17,0A1.5,1.5,0,1,1,19,20.5,1.5,1.5,0,0,1,20.5,19ZM3.5,35A1.5,1.5,0,1,1,2,36.5,1.5,1.5,0,0,1,3.5,35Zm17,0A1.5,1.5,0,1,1,19,36.5,1.5,1.5,0,0,1,20.5,35ZM3.5,69A1.5,1.5,0,1,1,2,70.5,1.5,1.5,0,0,1,3.5,69Zm17,0A1.5,1.5,0,1,1,19,70.5,1.5,1.5,0,0,1,20.5,69ZM3.5,85A1.5,1.5,0,1,1,2,86.5,1.5,1.5,0,0,1,3.5,85Zm17,0A1.5,1.5,0,1,1,19,86.5,1.5,1.5,0,0,1,20.5,85Zm-17,17A1.5,1.5,0,1,1,2,103.5,1.5,1.5,0,0,1,3.5,102Zm17,0a1.5,1.5,0,1,1-1.5,1.5A1.5,1.5,0,0,1,20.5,102Zm-17,18A1.5,1.5,0,1,1,2,121.5,1.5,1.5,0,0,1,3.5,120Zm17,0a1.5,1.5,0,1,1-1.5,1.5A1.5,1.5,0,0,1,20.5,120Zm-17,17A1.5,1.5,0,1,1,2,138.5,1.5,1.5,0,0,1,3.5,137Zm17,0a1.5,1.5,0,1,1-1.5,1.5A1.5,1.5,0,0,1,20.5,137Zm-17,16A1.5,1.5,0,1,1,2,154.5,1.5,1.5,0,0,1,3.5,153Zm17,0a1.5,1.5,0,1,1-1.5,1.5A1.5,1.5,0,0,1,20.5,153Zm17-16a1.5,1.5,0,1,1-1.5,1.5A1.5,1.5,0,0,1,37.5,137Zm17,0a1.5,1.5,0,1,1-1.5,1.5A1.5,1.5,0,0,1,54.5,137Zm-17,16a1.5,1.5,0,1,1-1.5,1.5A1.5,1.5,0,0,1,37.5,153Zm17,0a1.5,1.5,0,1,1-1.5,1.5A1.5,1.5,0,0,1,54.5,153Zm16-16a1.5,1.5,0,1,1-1.5,1.5A1.5,1.5,0,0,1,70.5,137Zm17,0a1.5,1.5,0,1,1-1.5,1.5A1.5,1.5,0,0,1,87.5,137Zm-17,16a1.5,1.5,0,1,1-1.5,1.5A1.5,1.5,0,0,1,70.5,153Zm17,0a1.5,1.5,0,1,1-1.5,1.5A1.5,1.5,0,0,1,87.5,153Zm17-16a1.5,1.5,0,1,1-1.5,1.5A1.5,1.5,0,0,1,104.5,137Zm17,0a1.5,1.5,0,1,1-1.5,1.5A1.5,1.5,0,0,1,121.5,137Zm-17,16a1.5,1.5,0,1,1-1.5,1.5A1.5,1.5,0,0,1,104.5,153Zm17,0a1.5,1.5,0,1,1-1.5,1.5A1.5,1.5,0,0,1,121.5,153Zm16-16a1.5,1.5,0,1,1-1.5,1.5A1.5,1.5,0,0,1,137.5,137Zm17,0a1.5,1.5,0,1,1-1.5,1.5A1.5,1.5,0,0,1,154.5,137Zm-17,16a1.5,1.5,0,1,1-1.5,1.5A1.5,1.5,0,0,1,137.5,153Zm17,0a1.5,1.5,0,1,1-1.5,1.5A1.5,1.5,0,0,1,154.5,153ZM3.5,52A1.5,1.5,0,1,1,2,53.5,1.5,1.5,0,0,1,3.5,52Zm17,0A1.5,1.5,0,1,1,19,53.5,1.5,1.5,0,0,1,20.5,52Z"/>
</svg>
